<mxfile host="app.diagrams.net" modified="2023-08-09T18:19:13.069Z" agent="Mozilla/5.0 (Windows NT 10.0; Win64; x64) AppleWebKit/537.36 (KHTML, like Gecko) Chrome/113.0.0.0 Safari/537.36 Edg/113.0.1774.35" etag="UGLgB9BPKJ05dT5LO_cL" version="21.6.6" type="github">
  <diagram name="Pagina-1" id="qvAVdLw9OO4eROE65le9">
    <mxGraphModel dx="989" dy="553" grid="1" gridSize="10" guides="1" tooltips="1" connect="1" arrows="1" fold="1" page="1" pageScale="1" pageWidth="827" pageHeight="1169" math="0" shadow="0">
      <root>
        <mxCell id="0" />
        <mxCell id="1" parent="0" />
        <object label="" id="IdS1Egydh80lcLbrXX8p-1">
          <mxCell style="shape=table;startSize=0;container=1;collapsible=0;childLayout=tableLayout;fixedRows=1;rowLines=0;fontStyle=0;strokeColor=default;fontSize=16;" vertex="1" parent="1">
            <mxGeometry x="40" y="80" width="80" height="150" as="geometry" />
          </mxCell>
        </object>
        <mxCell id="IdS1Egydh80lcLbrXX8p-2" value="" style="shape=tableRow;horizontal=0;startSize=0;swimlaneHead=0;swimlaneBody=0;top=0;left=0;bottom=0;right=0;collapsible=0;dropTarget=0;fillColor=none;points=[[0,0.5],[1,0.5]];portConstraint=eastwest;strokeColor=inherit;fontSize=16;" vertex="1" parent="IdS1Egydh80lcLbrXX8p-1">
          <mxGeometry width="80" height="30" as="geometry" />
        </mxCell>
        <mxCell id="IdS1Egydh80lcLbrXX8p-3" value="0" style="shape=partialRectangle;html=1;whiteSpace=wrap;connectable=0;fillColor=none;top=0;left=0;bottom=0;right=0;overflow=hidden;pointerEvents=1;strokeColor=inherit;fontSize=16;" vertex="1" parent="IdS1Egydh80lcLbrXX8p-2">
          <mxGeometry width="18" height="30" as="geometry">
            <mxRectangle width="18" height="30" as="alternateBounds" />
          </mxGeometry>
        </mxCell>
        <mxCell id="IdS1Egydh80lcLbrXX8p-4" value="7" style="shape=partialRectangle;html=1;whiteSpace=wrap;connectable=0;fillColor=none;top=0;left=0;bottom=0;right=0;align=left;spacingLeft=6;overflow=hidden;strokeColor=inherit;fontSize=16;" vertex="1" parent="IdS1Egydh80lcLbrXX8p-2">
          <mxGeometry x="18" width="62" height="30" as="geometry">
            <mxRectangle width="62" height="30" as="alternateBounds" />
          </mxGeometry>
        </mxCell>
        <mxCell id="IdS1Egydh80lcLbrXX8p-5" value="" style="shape=tableRow;horizontal=0;startSize=0;swimlaneHead=0;swimlaneBody=0;top=0;left=0;bottom=0;right=0;collapsible=0;dropTarget=0;fillColor=none;points=[[0,0.5],[1,0.5]];portConstraint=eastwest;strokeColor=inherit;fontSize=16;" vertex="1" parent="IdS1Egydh80lcLbrXX8p-1">
          <mxGeometry y="30" width="80" height="30" as="geometry" />
        </mxCell>
        <mxCell id="IdS1Egydh80lcLbrXX8p-6" value="1" style="shape=partialRectangle;html=1;whiteSpace=wrap;connectable=0;fillColor=none;top=0;left=0;bottom=0;right=0;overflow=hidden;strokeColor=inherit;fontSize=16;" vertex="1" parent="IdS1Egydh80lcLbrXX8p-5">
          <mxGeometry width="18" height="30" as="geometry">
            <mxRectangle width="18" height="30" as="alternateBounds" />
          </mxGeometry>
        </mxCell>
        <mxCell id="IdS1Egydh80lcLbrXX8p-7" value="49" style="shape=partialRectangle;html=1;whiteSpace=wrap;connectable=0;fillColor=none;top=0;left=0;bottom=0;right=0;align=left;spacingLeft=6;overflow=hidden;strokeColor=inherit;fontSize=16;" vertex="1" parent="IdS1Egydh80lcLbrXX8p-5">
          <mxGeometry x="18" width="62" height="30" as="geometry">
            <mxRectangle width="62" height="30" as="alternateBounds" />
          </mxGeometry>
        </mxCell>
        <mxCell id="IdS1Egydh80lcLbrXX8p-8" value="" style="shape=tableRow;horizontal=0;startSize=0;swimlaneHead=0;swimlaneBody=0;top=0;left=0;bottom=0;right=0;collapsible=0;dropTarget=0;fillColor=none;points=[[0,0.5],[1,0.5]];portConstraint=eastwest;strokeColor=inherit;fontSize=16;" vertex="1" parent="IdS1Egydh80lcLbrXX8p-1">
          <mxGeometry y="60" width="80" height="30" as="geometry" />
        </mxCell>
        <mxCell id="IdS1Egydh80lcLbrXX8p-9" value="2" style="shape=partialRectangle;html=1;whiteSpace=wrap;connectable=0;fillColor=none;top=0;left=0;bottom=0;right=0;overflow=hidden;strokeColor=inherit;fontSize=16;" vertex="1" parent="IdS1Egydh80lcLbrXX8p-8">
          <mxGeometry width="18" height="30" as="geometry">
            <mxRectangle width="18" height="30" as="alternateBounds" />
          </mxGeometry>
        </mxCell>
        <mxCell id="IdS1Egydh80lcLbrXX8p-10" value="-113" style="shape=partialRectangle;html=1;whiteSpace=wrap;connectable=0;fillColor=none;top=0;left=0;bottom=0;right=0;align=left;spacingLeft=6;overflow=hidden;strokeColor=inherit;fontSize=16;" vertex="1" parent="IdS1Egydh80lcLbrXX8p-8">
          <mxGeometry x="18" width="62" height="30" as="geometry">
            <mxRectangle width="62" height="30" as="alternateBounds" />
          </mxGeometry>
        </mxCell>
        <mxCell id="IdS1Egydh80lcLbrXX8p-32" value="" style="shape=tableRow;horizontal=0;startSize=0;swimlaneHead=0;swimlaneBody=0;top=0;left=0;bottom=0;right=0;collapsible=0;dropTarget=0;fillColor=none;points=[[0,0.5],[1,0.5]];portConstraint=eastwest;strokeColor=inherit;fontSize=16;" vertex="1" parent="IdS1Egydh80lcLbrXX8p-1">
          <mxGeometry y="90" width="80" height="30" as="geometry" />
        </mxCell>
        <mxCell id="IdS1Egydh80lcLbrXX8p-33" value="3" style="shape=partialRectangle;html=1;whiteSpace=wrap;connectable=0;fillColor=none;top=0;left=0;bottom=0;right=0;overflow=hidden;strokeColor=inherit;fontSize=16;" vertex="1" parent="IdS1Egydh80lcLbrXX8p-32">
          <mxGeometry width="18" height="30" as="geometry">
            <mxRectangle width="18" height="30" as="alternateBounds" />
          </mxGeometry>
        </mxCell>
        <mxCell id="IdS1Egydh80lcLbrXX8p-34" value="-128" style="shape=partialRectangle;html=1;whiteSpace=wrap;connectable=0;fillColor=none;top=0;left=0;bottom=0;right=0;align=left;spacingLeft=6;overflow=hidden;strokeColor=inherit;fontSize=16;" vertex="1" parent="IdS1Egydh80lcLbrXX8p-32">
          <mxGeometry x="18" width="62" height="30" as="geometry">
            <mxRectangle width="62" height="30" as="alternateBounds" />
          </mxGeometry>
        </mxCell>
        <mxCell id="IdS1Egydh80lcLbrXX8p-35" value="" style="shape=tableRow;horizontal=0;startSize=0;swimlaneHead=0;swimlaneBody=0;top=0;left=0;bottom=0;right=0;collapsible=0;dropTarget=0;fillColor=none;points=[[0,0.5],[1,0.5]];portConstraint=eastwest;strokeColor=inherit;fontSize=16;" vertex="1" parent="IdS1Egydh80lcLbrXX8p-1">
          <mxGeometry y="120" width="80" height="30" as="geometry" />
        </mxCell>
        <mxCell id="IdS1Egydh80lcLbrXX8p-36" value="4" style="shape=partialRectangle;html=1;whiteSpace=wrap;connectable=0;fillColor=none;top=0;left=0;bottom=0;right=0;overflow=hidden;strokeColor=inherit;fontSize=16;" vertex="1" parent="IdS1Egydh80lcLbrXX8p-35">
          <mxGeometry width="18" height="30" as="geometry">
            <mxRectangle width="18" height="30" as="alternateBounds" />
          </mxGeometry>
        </mxCell>
        <mxCell id="IdS1Egydh80lcLbrXX8p-37" value="98" style="shape=partialRectangle;html=1;whiteSpace=wrap;connectable=0;fillColor=none;top=0;left=0;bottom=0;right=0;align=left;spacingLeft=6;overflow=hidden;strokeColor=inherit;fontSize=16;" vertex="1" parent="IdS1Egydh80lcLbrXX8p-35">
          <mxGeometry x="18" width="62" height="30" as="geometry">
            <mxRectangle width="62" height="30" as="alternateBounds" />
          </mxGeometry>
        </mxCell>
        <mxCell id="IdS1Egydh80lcLbrXX8p-57" value="" style="shape=curlyBracket;whiteSpace=wrap;html=1;rounded=1;flipH=1;labelPosition=right;verticalLabelPosition=middle;align=left;verticalAlign=middle;" vertex="1" parent="1">
          <mxGeometry x="120" y="200" width="20" height="30" as="geometry" />
        </mxCell>
        <mxCell id="IdS1Egydh80lcLbrXX8p-58" value="" style="shape=curlyBracket;whiteSpace=wrap;html=1;rounded=1;flipH=1;labelPosition=right;verticalLabelPosition=middle;align=left;verticalAlign=middle;fillStyle=auto;" vertex="1" parent="1">
          <mxGeometry x="120" y="80" width="20" height="60" as="geometry" />
        </mxCell>
        <mxCell id="IdS1Egydh80lcLbrXX8p-59" value="" style="endArrow=none;html=1;rounded=1;exitX=0.1;exitY=0.5;exitDx=0;exitDy=0;exitPerimeter=0;entryX=0.1;entryY=0.5;entryDx=0;entryDy=0;entryPerimeter=0;" edge="1" parent="1" source="IdS1Egydh80lcLbrXX8p-113" target="IdS1Egydh80lcLbrXX8p-114">
          <mxGeometry width="50" height="50" relative="1" as="geometry">
            <mxPoint x="170" y="170" as="sourcePoint" />
            <mxPoint x="180" y="350" as="targetPoint" />
            <Array as="points">
              <mxPoint x="160" y="170" />
              <mxPoint x="160" y="350" />
            </Array>
          </mxGeometry>
        </mxCell>
        <mxCell id="IdS1Egydh80lcLbrXX8p-80" value="" style="shape=table;startSize=0;container=1;collapsible=0;childLayout=tableLayout;fixedRows=1;rowLines=0;fontStyle=0;strokeColor=default;fontSize=16;" vertex="1" parent="1">
          <mxGeometry x="40" y="320" width="80" height="150" as="geometry" />
        </mxCell>
        <mxCell id="IdS1Egydh80lcLbrXX8p-81" value="" style="shape=tableRow;horizontal=0;startSize=0;swimlaneHead=0;swimlaneBody=0;top=0;left=0;bottom=0;right=0;collapsible=0;dropTarget=0;fillColor=none;points=[[0,0.5],[1,0.5]];portConstraint=eastwest;strokeColor=inherit;fontSize=16;" vertex="1" parent="IdS1Egydh80lcLbrXX8p-80">
          <mxGeometry width="80" height="30" as="geometry" />
        </mxCell>
        <mxCell id="IdS1Egydh80lcLbrXX8p-82" value="5" style="shape=partialRectangle;html=1;whiteSpace=wrap;connectable=0;fillColor=none;top=0;left=0;bottom=0;right=0;overflow=hidden;pointerEvents=1;strokeColor=inherit;fontSize=16;" vertex="1" parent="IdS1Egydh80lcLbrXX8p-81">
          <mxGeometry width="18" height="30" as="geometry">
            <mxRectangle width="18" height="30" as="alternateBounds" />
          </mxGeometry>
        </mxCell>
        <mxCell id="IdS1Egydh80lcLbrXX8p-83" value="0" style="shape=partialRectangle;html=1;whiteSpace=wrap;connectable=0;fillColor=none;top=0;left=0;bottom=0;right=0;align=left;spacingLeft=6;overflow=hidden;strokeColor=inherit;fontSize=16;" vertex="1" parent="IdS1Egydh80lcLbrXX8p-81">
          <mxGeometry x="18" width="62" height="30" as="geometry">
            <mxRectangle width="62" height="30" as="alternateBounds" />
          </mxGeometry>
        </mxCell>
        <mxCell id="IdS1Egydh80lcLbrXX8p-84" value="" style="shape=tableRow;horizontal=0;startSize=0;swimlaneHead=0;swimlaneBody=0;top=0;left=0;bottom=0;right=0;collapsible=0;dropTarget=0;fillColor=none;points=[[0,0.5],[1,0.5]];portConstraint=eastwest;strokeColor=inherit;fontSize=16;" vertex="1" parent="IdS1Egydh80lcLbrXX8p-80">
          <mxGeometry y="30" width="80" height="30" as="geometry" />
        </mxCell>
        <mxCell id="IdS1Egydh80lcLbrXX8p-85" value="6" style="shape=partialRectangle;html=1;whiteSpace=wrap;connectable=0;fillColor=none;top=0;left=0;bottom=0;right=0;overflow=hidden;strokeColor=inherit;fontSize=16;" vertex="1" parent="IdS1Egydh80lcLbrXX8p-84">
          <mxGeometry width="18" height="30" as="geometry">
            <mxRectangle width="18" height="30" as="alternateBounds" />
          </mxGeometry>
        </mxCell>
        <mxCell id="IdS1Egydh80lcLbrXX8p-86" value="0" style="shape=partialRectangle;html=1;whiteSpace=wrap;connectable=0;fillColor=none;top=0;left=0;bottom=0;right=0;align=left;spacingLeft=6;overflow=hidden;strokeColor=inherit;fontSize=16;" vertex="1" parent="IdS1Egydh80lcLbrXX8p-84">
          <mxGeometry x="18" width="62" height="30" as="geometry">
            <mxRectangle width="62" height="30" as="alternateBounds" />
          </mxGeometry>
        </mxCell>
        <mxCell id="IdS1Egydh80lcLbrXX8p-87" value="" style="shape=tableRow;horizontal=0;startSize=0;swimlaneHead=0;swimlaneBody=0;top=0;left=0;bottom=0;right=0;collapsible=0;dropTarget=0;fillColor=none;points=[[0,0.5],[1,0.5]];portConstraint=eastwest;strokeColor=inherit;fontSize=16;" vertex="1" parent="IdS1Egydh80lcLbrXX8p-80">
          <mxGeometry y="60" width="80" height="30" as="geometry" />
        </mxCell>
        <mxCell id="IdS1Egydh80lcLbrXX8p-88" value="7" style="shape=partialRectangle;html=1;whiteSpace=wrap;connectable=0;fillColor=none;top=0;left=0;bottom=0;right=0;overflow=hidden;strokeColor=inherit;fontSize=16;" vertex="1" parent="IdS1Egydh80lcLbrXX8p-87">
          <mxGeometry width="18" height="30" as="geometry">
            <mxRectangle width="18" height="30" as="alternateBounds" />
          </mxGeometry>
        </mxCell>
        <mxCell id="IdS1Egydh80lcLbrXX8p-89" value="0" style="shape=partialRectangle;html=1;whiteSpace=wrap;connectable=0;fillColor=none;top=0;left=0;bottom=0;right=0;align=left;spacingLeft=6;overflow=hidden;strokeColor=inherit;fontSize=16;" vertex="1" parent="IdS1Egydh80lcLbrXX8p-87">
          <mxGeometry x="18" width="62" height="30" as="geometry">
            <mxRectangle width="62" height="30" as="alternateBounds" />
          </mxGeometry>
        </mxCell>
        <mxCell id="IdS1Egydh80lcLbrXX8p-90" value="" style="shape=tableRow;horizontal=0;startSize=0;swimlaneHead=0;swimlaneBody=0;top=0;left=0;bottom=0;right=0;collapsible=0;dropTarget=0;fillColor=none;points=[[0,0.5],[1,0.5]];portConstraint=eastwest;strokeColor=inherit;fontSize=16;" vertex="1" parent="IdS1Egydh80lcLbrXX8p-80">
          <mxGeometry y="90" width="80" height="30" as="geometry" />
        </mxCell>
        <mxCell id="IdS1Egydh80lcLbrXX8p-91" value="8" style="shape=partialRectangle;html=1;whiteSpace=wrap;connectable=0;fillColor=none;top=0;left=0;bottom=0;right=0;overflow=hidden;strokeColor=inherit;fontSize=16;" vertex="1" parent="IdS1Egydh80lcLbrXX8p-90">
          <mxGeometry width="18" height="30" as="geometry">
            <mxRectangle width="18" height="30" as="alternateBounds" />
          </mxGeometry>
        </mxCell>
        <mxCell id="IdS1Egydh80lcLbrXX8p-92" value="0" style="shape=partialRectangle;html=1;whiteSpace=wrap;connectable=0;fillColor=none;top=0;left=0;bottom=0;right=0;align=left;spacingLeft=6;overflow=hidden;strokeColor=inherit;fontSize=16;" vertex="1" parent="IdS1Egydh80lcLbrXX8p-90">
          <mxGeometry x="18" width="62" height="30" as="geometry">
            <mxRectangle width="62" height="30" as="alternateBounds" />
          </mxGeometry>
        </mxCell>
        <mxCell id="IdS1Egydh80lcLbrXX8p-93" value="" style="shape=tableRow;horizontal=0;startSize=0;swimlaneHead=0;swimlaneBody=0;top=0;left=0;bottom=0;right=0;collapsible=0;dropTarget=0;fillColor=none;points=[[0,0.5],[1,0.5]];portConstraint=eastwest;strokeColor=inherit;fontSize=16;" vertex="1" parent="IdS1Egydh80lcLbrXX8p-80">
          <mxGeometry y="120" width="80" height="30" as="geometry" />
        </mxCell>
        <mxCell id="IdS1Egydh80lcLbrXX8p-94" value="9" style="shape=partialRectangle;html=1;whiteSpace=wrap;connectable=0;fillColor=none;top=0;left=0;bottom=0;right=0;overflow=hidden;strokeColor=inherit;fontSize=16;" vertex="1" parent="IdS1Egydh80lcLbrXX8p-93">
          <mxGeometry width="18" height="30" as="geometry">
            <mxRectangle width="18" height="30" as="alternateBounds" />
          </mxGeometry>
        </mxCell>
        <mxCell id="IdS1Egydh80lcLbrXX8p-95" value="0" style="shape=partialRectangle;html=1;whiteSpace=wrap;connectable=0;fillColor=none;top=0;left=0;bottom=0;right=0;align=left;spacingLeft=6;overflow=hidden;strokeColor=inherit;fontSize=16;" vertex="1" parent="IdS1Egydh80lcLbrXX8p-93">
          <mxGeometry x="18" width="62" height="30" as="geometry">
            <mxRectangle width="62" height="30" as="alternateBounds" />
          </mxGeometry>
        </mxCell>
        <mxCell id="IdS1Egydh80lcLbrXX8p-97" value="" style="shape=table;startSize=0;container=1;collapsible=0;childLayout=tableLayout;fixedRows=1;rowLines=0;fontStyle=0;strokeColor=default;fontSize=16;" vertex="1" parent="1">
          <mxGeometry x="220" y="320" width="80" height="150" as="geometry" />
        </mxCell>
        <mxCell id="IdS1Egydh80lcLbrXX8p-98" value="" style="shape=tableRow;horizontal=0;startSize=0;swimlaneHead=0;swimlaneBody=0;top=0;left=0;bottom=0;right=0;collapsible=0;dropTarget=0;fillColor=none;points=[[0,0.5],[1,0.5]];portConstraint=eastwest;strokeColor=inherit;fontSize=16;" vertex="1" parent="IdS1Egydh80lcLbrXX8p-97">
          <mxGeometry width="80" height="30" as="geometry" />
        </mxCell>
        <mxCell id="IdS1Egydh80lcLbrXX8p-99" value="5" style="shape=partialRectangle;html=1;whiteSpace=wrap;connectable=0;fillColor=none;top=0;left=0;bottom=0;right=0;overflow=hidden;pointerEvents=1;strokeColor=inherit;fontSize=16;" vertex="1" parent="IdS1Egydh80lcLbrXX8p-98">
          <mxGeometry width="18" height="30" as="geometry">
            <mxRectangle width="18" height="30" as="alternateBounds" />
          </mxGeometry>
        </mxCell>
        <mxCell id="IdS1Egydh80lcLbrXX8p-100" value="-113" style="shape=partialRectangle;html=1;whiteSpace=wrap;connectable=0;fillColor=none;top=0;left=0;bottom=0;right=0;align=left;spacingLeft=6;overflow=hidden;strokeColor=inherit;fontSize=16;" vertex="1" parent="IdS1Egydh80lcLbrXX8p-98">
          <mxGeometry x="18" width="62" height="30" as="geometry">
            <mxRectangle width="62" height="30" as="alternateBounds" />
          </mxGeometry>
        </mxCell>
        <mxCell id="IdS1Egydh80lcLbrXX8p-101" value="" style="shape=tableRow;horizontal=0;startSize=0;swimlaneHead=0;swimlaneBody=0;top=0;left=0;bottom=0;right=0;collapsible=0;dropTarget=0;fillColor=none;points=[[0,0.5],[1,0.5]];portConstraint=eastwest;strokeColor=inherit;fontSize=16;" vertex="1" parent="IdS1Egydh80lcLbrXX8p-97">
          <mxGeometry y="30" width="80" height="30" as="geometry" />
        </mxCell>
        <mxCell id="IdS1Egydh80lcLbrXX8p-102" value="6" style="shape=partialRectangle;html=1;whiteSpace=wrap;connectable=0;fillColor=none;top=0;left=0;bottom=0;right=0;overflow=hidden;strokeColor=inherit;fontSize=16;" vertex="1" parent="IdS1Egydh80lcLbrXX8p-101">
          <mxGeometry width="18" height="30" as="geometry">
            <mxRectangle width="18" height="30" as="alternateBounds" />
          </mxGeometry>
        </mxCell>
        <mxCell id="IdS1Egydh80lcLbrXX8p-103" value="-128" style="shape=partialRectangle;html=1;whiteSpace=wrap;connectable=0;fillColor=none;top=0;left=0;bottom=0;right=0;align=left;spacingLeft=6;overflow=hidden;strokeColor=inherit;fontSize=16;" vertex="1" parent="IdS1Egydh80lcLbrXX8p-101">
          <mxGeometry x="18" width="62" height="30" as="geometry">
            <mxRectangle width="62" height="30" as="alternateBounds" />
          </mxGeometry>
        </mxCell>
        <mxCell id="IdS1Egydh80lcLbrXX8p-104" value="" style="shape=tableRow;horizontal=0;startSize=0;swimlaneHead=0;swimlaneBody=0;top=0;left=0;bottom=0;right=0;collapsible=0;dropTarget=0;fillColor=none;points=[[0,0.5],[1,0.5]];portConstraint=eastwest;strokeColor=inherit;fontSize=16;" vertex="1" parent="IdS1Egydh80lcLbrXX8p-97">
          <mxGeometry y="60" width="80" height="30" as="geometry" />
        </mxCell>
        <mxCell id="IdS1Egydh80lcLbrXX8p-105" value="7" style="shape=partialRectangle;html=1;whiteSpace=wrap;connectable=0;fillColor=none;top=0;left=0;bottom=0;right=0;overflow=hidden;strokeColor=inherit;fontSize=16;" vertex="1" parent="IdS1Egydh80lcLbrXX8p-104">
          <mxGeometry width="18" height="30" as="geometry">
            <mxRectangle width="18" height="30" as="alternateBounds" />
          </mxGeometry>
        </mxCell>
        <mxCell id="IdS1Egydh80lcLbrXX8p-106" value="0" style="shape=partialRectangle;html=1;whiteSpace=wrap;connectable=0;fillColor=none;top=0;left=0;bottom=0;right=0;align=left;spacingLeft=6;overflow=hidden;strokeColor=inherit;fontSize=16;" vertex="1" parent="IdS1Egydh80lcLbrXX8p-104">
          <mxGeometry x="18" width="62" height="30" as="geometry">
            <mxRectangle width="62" height="30" as="alternateBounds" />
          </mxGeometry>
        </mxCell>
        <mxCell id="IdS1Egydh80lcLbrXX8p-107" value="" style="shape=tableRow;horizontal=0;startSize=0;swimlaneHead=0;swimlaneBody=0;top=0;left=0;bottom=0;right=0;collapsible=0;dropTarget=0;fillColor=none;points=[[0,0.5],[1,0.5]];portConstraint=eastwest;strokeColor=inherit;fontSize=16;" vertex="1" parent="IdS1Egydh80lcLbrXX8p-97">
          <mxGeometry y="90" width="80" height="30" as="geometry" />
        </mxCell>
        <mxCell id="IdS1Egydh80lcLbrXX8p-108" value="8" style="shape=partialRectangle;html=1;whiteSpace=wrap;connectable=0;fillColor=none;top=0;left=0;bottom=0;right=0;overflow=hidden;strokeColor=inherit;fontSize=16;" vertex="1" parent="IdS1Egydh80lcLbrXX8p-107">
          <mxGeometry width="18" height="30" as="geometry">
            <mxRectangle width="18" height="30" as="alternateBounds" />
          </mxGeometry>
        </mxCell>
        <mxCell id="IdS1Egydh80lcLbrXX8p-109" value="0" style="shape=partialRectangle;html=1;whiteSpace=wrap;connectable=0;fillColor=none;top=0;left=0;bottom=0;right=0;align=left;spacingLeft=6;overflow=hidden;strokeColor=inherit;fontSize=16;" vertex="1" parent="IdS1Egydh80lcLbrXX8p-107">
          <mxGeometry x="18" width="62" height="30" as="geometry">
            <mxRectangle width="62" height="30" as="alternateBounds" />
          </mxGeometry>
        </mxCell>
        <mxCell id="IdS1Egydh80lcLbrXX8p-110" value="" style="shape=tableRow;horizontal=0;startSize=0;swimlaneHead=0;swimlaneBody=0;top=0;left=0;bottom=0;right=0;collapsible=0;dropTarget=0;fillColor=none;points=[[0,0.5],[1,0.5]];portConstraint=eastwest;strokeColor=inherit;fontSize=16;" vertex="1" parent="IdS1Egydh80lcLbrXX8p-97">
          <mxGeometry y="120" width="80" height="30" as="geometry" />
        </mxCell>
        <mxCell id="IdS1Egydh80lcLbrXX8p-111" value="9" style="shape=partialRectangle;html=1;whiteSpace=wrap;connectable=0;fillColor=none;top=0;left=0;bottom=0;right=0;overflow=hidden;strokeColor=inherit;fontSize=16;" vertex="1" parent="IdS1Egydh80lcLbrXX8p-110">
          <mxGeometry width="18" height="30" as="geometry">
            <mxRectangle width="18" height="30" as="alternateBounds" />
          </mxGeometry>
        </mxCell>
        <mxCell id="IdS1Egydh80lcLbrXX8p-112" value="0" style="shape=partialRectangle;html=1;whiteSpace=wrap;connectable=0;fillColor=none;top=0;left=0;bottom=0;right=0;align=left;spacingLeft=6;overflow=hidden;strokeColor=inherit;fontSize=16;" vertex="1" parent="IdS1Egydh80lcLbrXX8p-110">
          <mxGeometry x="18" width="62" height="30" as="geometry">
            <mxRectangle width="62" height="30" as="alternateBounds" />
          </mxGeometry>
        </mxCell>
        <mxCell id="IdS1Egydh80lcLbrXX8p-113" value="" style="shape=curlyBracket;whiteSpace=wrap;html=1;rounded=1;flipH=1;labelPosition=right;verticalLabelPosition=middle;align=left;verticalAlign=middle;fillStyle=auto;" vertex="1" parent="1">
          <mxGeometry x="120" y="140" width="20" height="60" as="geometry" />
        </mxCell>
        <mxCell id="IdS1Egydh80lcLbrXX8p-114" value="" style="shape=curlyBracket;whiteSpace=wrap;html=1;rounded=1;flipH=1;labelPosition=right;verticalLabelPosition=middle;align=left;verticalAlign=middle;fillStyle=auto;rotation=-180;" vertex="1" parent="1">
          <mxGeometry x="200" y="320" width="20" height="60" as="geometry" />
        </mxCell>
      </root>
    </mxGraphModel>
  </diagram>
</mxfile>
